<?xml version="1.0" encoding="UTF-8" standalone="no"?>
<!DOCTYPE svg PUBLIC "-//W3C//DTD SVG 1.1//EN" "http://www.w3.org/Graphics/SVG/1.1/DTD/svg11.dtd">
<svg width="100%" height="100%" viewBox="0 0 3558 1798" version="1.1" xmlns="http://www.w3.org/2000/svg" xmlns:xlink="http://www.w3.org/1999/xlink" xml:space="preserve" xmlns:serif="http://www.serif.com/" style="fill-rule:evenodd;clip-rule:evenodd;stroke-linejoin:round;stroke-miterlimit:2;">
    <g transform="matrix(1,0,0,1,-119.614,-241.75)">
        <g transform="matrix(1,0,0,1,-122.63,0)">
            <g transform="matrix(1.33142e-17,0.217438,-0.420754,2.57638e-17,1107.04,214.824)">
                <path d="M1055.18,276.339L1055.18,230.422L1334.34,230.422L1334.34,187.784L1461.28,253.381L1334.34,318.977L1334.34,276.339L1055.18,276.339Z" style="fill:rgb(187,187,187);"/>
            </g>
        </g>
        <g transform="matrix(1,0,0,1,-122.63,0)">
            <g transform="matrix(1.33142e-17,0.217438,-0.420754,2.57638e-17,1107.04,12.3135)">
                <path d="M1055.18,276.339L1055.18,230.422L1334.34,230.422L1334.34,187.784L1461.28,253.381L1334.34,318.977L1334.34,276.339L1055.18,276.339Z" style="fill:rgb(187,187,187);"/>
            </g>
        </g>
        <g transform="matrix(1,0,0,1,-122.63,0)">
            <g transform="matrix(1.33142e-17,0.217438,-0.420754,2.57638e-17,1107.04,416.46)">
                <path d="M1055.18,276.339L1055.18,230.422L1334.34,230.422L1334.34,187.784L1461.28,253.381L1334.34,318.977L1334.34,276.339L1055.18,276.339Z" style="fill:rgb(187,187,187);"/>
            </g>
        </g>
        <g transform="matrix(1,0,0,1,-122.63,0)">
            <g transform="matrix(1.33142e-17,0.217438,-0.420754,2.57638e-17,1107.04,616.174)">
                <path d="M1055.18,276.339L1055.18,230.422L1334.34,230.422L1334.34,187.784L1461.28,253.381L1334.34,318.977L1334.34,276.339L1055.18,276.339Z" style="fill:rgb(187,187,187);"/>
            </g>
        </g>
        <g transform="matrix(1,0,0,1,-122.63,0)">
            <g transform="matrix(1.33142e-17,0.217438,-0.420754,2.57638e-17,1107.04,815.889)">
                <path d="M1055.18,276.339L1055.18,230.422L1334.34,230.422L1334.34,187.784L1461.28,253.381L1334.34,318.977L1334.34,276.339L1055.18,276.339Z" style="fill:rgb(187,187,187);"/>
            </g>
        </g>
        <g transform="matrix(1,0,0,1,-122.63,0)">
            <g transform="matrix(1.33142e-17,0.217438,-0.420754,2.57638e-17,1107.04,1015.6)">
                <path d="M1055.18,276.339L1055.18,230.422L1334.34,230.422L1334.34,187.784L1461.28,253.381L1334.34,318.977L1334.34,276.339L1055.18,276.339Z" style="fill:rgb(187,187,187);"/>
            </g>
        </g>
        <g transform="matrix(1,0,0,1,-122.63,0)">
            <g transform="matrix(1.33142e-17,0.217438,-0.420754,2.57638e-17,1107.04,1215.32)">
                <path d="M1055.18,276.339L1055.18,230.422L1334.34,230.422L1334.34,187.784L1461.28,253.381L1334.34,318.977L1334.34,276.339L1055.18,276.339Z" style="fill:rgb(187,187,187);"/>
            </g>
        </g>
        <g transform="matrix(1,0,0,1,-122.63,0)">
            <g transform="matrix(1.33142e-17,0.217438,-0.420754,2.57638e-17,1107.04,1415.03)">
                <path d="M1055.18,276.339L1055.18,230.422L1334.34,230.422L1334.34,187.784L1461.28,253.381L1334.34,318.977L1334.34,276.339L1055.18,276.339Z" style="fill:rgb(187,187,187);"/>
            </g>
        </g>
        <g transform="matrix(1,0,0,1,-122.63,0)">
            <g transform="matrix(1.33142e-17,0.217438,-0.420754,2.57638e-17,1107.04,1614.75)">
                <path d="M1055.18,276.339L1055.18,230.422L1334.34,230.422L1334.34,187.784L1461.28,253.381L1334.34,318.977L1334.34,276.339L1055.18,276.339Z" style="fill:rgb(187,187,187);"/>
            </g>
        </g>
        <g transform="matrix(1,0,0,1,-122.63,0)">
            <g transform="matrix(4.34279e-17,0.709231,-0.420754,2.57638e-17,1576.84,296.958)">
                <path d="M1055.18,276.339L1055.18,230.422L1422.36,230.422L1422.36,187.784L1461.28,253.381L1422.36,318.977L1422.36,276.339L1055.18,276.339Z" style="fill:rgb(187,187,187);"/>
            </g>
        </g>
        <g transform="matrix(1,0,0,1,-122.63,0)">
            <g transform="matrix(1.03655e-16,1.69282,-0.420754,2.57638e-17,1756.84,-940.619)">
                <path d="M1055.18,276.339L1055.18,230.422L1444.97,230.422L1444.97,187.784L1461.28,253.381L1444.97,318.977L1444.97,276.339L1055.18,276.339Z" style="fill:rgb(187,187,187);"/>
            </g>
        </g>
        <g transform="matrix(1,0,0,1,-122.63,0)">
            <g transform="matrix(1.63883e-16,2.67641,-0.515473,3.15636e-17,1996.84,-2178.2)">
                <path d="M1055.18,276.339L1055.18,230.422L1448.64,230.422L1448.64,187.784L1461.28,253.381L1448.64,318.977L1448.64,276.339L1055.18,276.339Z" style="fill:rgb(187,187,187);"/>
            </g>
        </g>
        <g transform="matrix(1,0,0,1,-122.63,0)">
            <g transform="matrix(2.244e-16,3.66472,-0.515473,3.15636e-17,2249.82,-3422.69)">
                <path d="M1055.18,276.339L1055.18,230.422L1452.05,230.422L1452.05,187.784L1461.28,253.381L1452.05,318.977L1452.05,276.339L1055.18,276.339Z" style="fill:rgb(187,187,187);"/>
            </g>
        </g>
        <g transform="matrix(1.10755,0,0,0.786012,-1456.48,357.708)">
            <path d="M2914.25,262.476C2914.25,244.922 2904.14,230.67 2891.68,230.67L1766.67,230.67C1754.21,230.67 1744.1,244.922 1744.1,262.476L1744.1,326.088C1744.1,343.642 1754.21,357.894 1766.67,357.894L2891.68,357.894C2904.14,357.894 2914.25,343.642 2914.25,326.088L2914.25,262.476Z" style="fill:rgb(174,61,96);"/>
        </g>
        <g transform="matrix(0.922955,0,0,0.786012,-1134.53,557.708)">
            <path d="M2914.25,262.476C2914.25,244.922 2902.12,230.67 2887.17,230.67L1771.19,230.67C1756.24,230.67 1744.1,244.922 1744.1,262.476L1744.1,326.088C1744.1,343.642 1756.24,357.894 1771.19,357.894L2887.17,357.894C2902.12,357.894 2914.25,343.642 2914.25,326.088L2914.25,262.476Z" style="fill:rgb(174,61,96);"/>
        </g>
        <g transform="matrix(0.769129,0,0,0.786012,-866.244,757.708)">
            <path d="M2914.25,262.476C2914.25,244.922 2899.69,230.67 2881.75,230.67L1776.6,230.67C1758.66,230.67 1744.1,244.922 1744.1,262.476L1744.1,326.088C1744.1,343.642 1758.66,357.894 1776.6,357.894L2881.75,357.894C2899.69,357.894 2914.25,343.642 2914.25,326.088L2914.25,262.476Z" style="fill:rgb(223,74,57);"/>
        </g>
        <g transform="matrix(0.640941,0,0,0.786012,-642.671,957.708)">
            <path d="M2914.25,262.476C2914.25,244.922 2896.78,230.67 2875.25,230.67L1783.11,230.67C1761.58,230.67 1744.1,244.922 1744.1,262.476L1744.1,326.088C1744.1,343.642 1761.58,357.894 1783.11,357.894L2875.25,357.894C2896.78,357.894 2914.25,343.642 2914.25,326.088L2914.25,262.476Z" style="fill:rgb(241,196,54);"/>
        </g>
        <g transform="matrix(0.769129,0,0,0.786012,-866.244,1157.71)">
            <path d="M2914.25,262.476C2914.25,244.922 2899.69,230.67 2881.75,230.67L1776.6,230.67C1758.66,230.67 1744.1,244.922 1744.1,262.476L1744.1,326.088C1744.1,343.642 1758.66,357.894 1776.6,357.894L2881.75,357.894C2899.69,357.894 2914.25,343.642 2914.25,326.088L2914.25,262.476Z" style="fill:rgb(39,94,122);"/>
        </g>
        <g transform="matrix(0.922955,0,0,0.786012,-1134.53,1357.71)">
            <path d="M2914.25,262.476C2914.25,244.922 2902.12,230.67 2887.17,230.67L1771.19,230.67C1756.24,230.67 1744.1,244.922 1744.1,262.476L1744.1,326.088C1744.1,343.642 1756.24,357.894 1771.19,357.894L2887.17,357.894C2902.12,357.894 2914.25,343.642 2914.25,326.088L2914.25,262.476Z" style="fill:rgb(40,119,121);"/>
        </g>
        <g transform="matrix(1.10755,0,0,0.786012,-1456.48,1557.71)">
            <path d="M2914.25,262.476C2914.25,244.922 2904.14,230.67 2891.68,230.67L1766.67,230.67C1754.21,230.67 1744.1,244.922 1744.1,262.476L1744.1,326.088C1744.1,343.642 1754.21,357.894 1766.67,357.894L2891.68,357.894C2904.14,357.894 2914.25,343.642 2914.25,326.088L2914.25,262.476Z" style="fill:rgb(40,119,121);"/>
        </g>
        <g transform="matrix(1.32906,0,0,0.786012,-1842.81,1757.71)">
            <path d="M2914.25,262.476C2914.25,244.922 2905.83,230.67 2895.44,230.67L1762.91,230.67C1752.53,230.67 1744.1,244.922 1744.1,262.476L1744.1,326.088C1744.1,343.642 1752.53,357.894 1762.91,357.894L2895.44,357.894C2905.83,357.894 2914.25,343.642 2914.25,326.088L2914.25,262.476Z" style="fill:rgb(130,180,187);"/>
        </g>
        <g transform="matrix(1.32906,0,0,0.786012,-1842.81,156.494)">
            <path d="M2914.25,262.476C2914.25,244.922 2905.83,230.67 2895.44,230.67L1762.91,230.67C1752.53,230.67 1744.1,244.922 1744.1,262.476L1744.1,326.088C1744.1,343.642 1752.53,357.894 1762.91,357.894L2895.44,357.894C2905.83,357.894 2914.25,343.642 2914.25,326.088L2914.25,262.476Z" style="fill:rgb(174,61,96);"/>
        </g>
        <g transform="matrix(1,0,0,1,0,26.0214)">
            <g transform="matrix(0.382342,0,0,3.70467,1598.05,-542.347)">
                <path d="M2914.25,237.418C2914.25,233.693 2884.96,230.67 2848.87,230.67L1809.49,230.67C1773.4,230.67 1744.1,233.693 1744.1,237.418L1744.1,351.146C1744.1,354.87 1773.4,357.894 1809.49,357.894L2848.87,357.894C2884.96,357.894 2914.25,354.87 2914.25,351.146L2914.25,237.418Z" style="fill:rgb(174,61,96);"/>
            </g>
        </g>
        <g transform="matrix(1,0,0,1,0,26.0214)">
            <g transform="matrix(0.333311,0,0,0.434819,1712.25,350.222)">
                <path d="M2914.25,288.165C2914.25,256.432 2880.65,230.67 2839.25,230.67L1819.11,230.67C1777.71,230.67 1744.1,256.432 1744.1,288.165L1744.1,300.399C1744.1,332.131 1777.71,357.894 1819.11,357.894L2839.25,357.894C2880.65,357.894 2914.25,332.131 2914.25,300.399L2914.25,288.165Z" style="fill:white;fill-opacity:0.15;"/>
            </g>
        </g>
        <g transform="matrix(1,0,0,1,0,26.0214)">
            <g transform="matrix(0.333311,0,0,0.434819,1712.25,419.426)">
                <path d="M2914.25,288.165C2914.25,256.432 2880.65,230.67 2839.25,230.67L1819.11,230.67C1777.71,230.67 1744.1,256.432 1744.1,288.165L1744.1,300.399C1744.1,332.131 1777.71,357.894 1819.11,357.894L2839.25,357.894C2880.65,357.894 2914.25,332.131 2914.25,300.399L2914.25,288.165Z" style="fill:white;fill-opacity:0.15;"/>
            </g>
        </g>
        <g transform="matrix(1,0,0,1,0,26.0214)">
            <g transform="matrix(0.333311,0,0,0.434819,1712.25,530.065)">
                <path d="M2914.25,288.165C2914.25,256.432 2880.65,230.67 2839.25,230.67L1819.11,230.67C1777.71,230.67 1744.1,256.432 1744.1,288.165L1744.1,300.399C1744.1,332.131 1777.71,357.894 1819.11,357.894L2839.25,357.894C2880.65,357.894 2914.25,332.131 2914.25,300.399L2914.25,288.165Z" style="fill:white;fill-opacity:0.15;"/>
            </g>
        </g>
        <g transform="matrix(1,0,0,1,0,26.0214)">
            <g transform="matrix(0.333311,0,0,0.434819,1712.25,599.226)">
                <path d="M2914.25,288.165C2914.25,256.432 2880.65,230.67 2839.25,230.67L1819.11,230.67C1777.71,230.67 1744.1,256.432 1744.1,288.165L1744.1,300.399C1744.1,332.131 1777.71,357.894 1819.11,357.894L2839.25,357.894C2880.65,357.894 2914.25,332.131 2914.25,300.399L2914.25,288.165Z" style="fill:white;fill-opacity:0.15;"/>
            </g>
        </g>
        <g transform="matrix(1,0,0,1,0,26.0214)">
            <g transform="matrix(0.333311,0,0,0.434819,1712.25,239.583)">
                <path d="M2914.25,288.165C2914.25,256.432 2880.65,230.67 2839.25,230.67L1819.11,230.67C1777.71,230.67 1744.1,256.432 1744.1,288.165L1744.1,300.399C1744.1,332.131 1777.71,357.894 1819.11,357.894L2839.25,357.894C2880.65,357.894 2914.25,332.131 2914.25,300.399L2914.25,288.165Z" style="fill:white;fill-opacity:0.15;"/>
            </g>
        </g>
        <g transform="matrix(1,0,0,1,0,26.0214)">
            <g transform="matrix(1,0,0,1,1640.8,-1149.05)">
                <g transform="matrix(40,0,0,40,919.295,1531.68)">
                </g>
                <text x="776.295px" y="1531.68px" style="font-family:'HelveticaNeue-Medium', 'Helvetica Neue', sans-serif;font-weight:500;font-size:40px;fill:white;">Conv2d</text>
            </g>
        </g>
        <g transform="matrix(1,0,0,1,0,26.0214)">
            <g transform="matrix(1,0,0,1,1640.8,-1039.43)">
                <g transform="matrix(40,0,0,40,986.015,1531.89)">
                </g>
                <text x="709.575px" y="1531.89px" style="font-family:'HelveticaNeue-Medium', 'Helvetica Neue', sans-serif;font-weight:500;font-size:40px;fill:white;">Residual Block</text>
            </g>
        </g>
        <g transform="matrix(1,0,0,1,0,26.0214)">
            <g transform="matrix(1,0,0,1,1640.8,-859.585)">
                <g transform="matrix(40,0,0,40,986.015,1531.89)">
                </g>
                <text x="709.575px" y="1531.89px" style="font-family:'HelveticaNeue-Medium', 'Helvetica Neue', sans-serif;font-weight:500;font-size:40px;fill:white;">Residual Block</text>
            </g>
        </g>
        <g transform="matrix(1,0,0,1,0,26.0214)">
            <g transform="matrix(1,0,0,1,1640.8,-970.224)">
                <g transform="matrix(40,0,0,40,990.055,1531.89)">
                </g>
                <text x="705.535px" y="1531.89px" style="font-family:'HelveticaNeue-Medium', 'Helvetica Neue', sans-serif;font-weight:500;font-size:40px;fill:white;">Attention Block</text>
            </g>
        </g>
        <g transform="matrix(1,0,0,1,0,26.0214)">
            <g transform="matrix(1,0,0,1,1640.8,-790.424)">
                <g transform="matrix(40,0,0,40,990.055,1531.89)">
                </g>
                <text x="705.535px" y="1531.89px" style="font-family:'HelveticaNeue-Medium', 'Helvetica Neue', sans-serif;font-weight:500;font-size:40px;fill:white;">Attention Block</text>
            </g>
        </g>
        <g transform="matrix(1,0,0,1,-652.783,-1152.15)">
            <g transform="matrix(45,0,0,45,1041.77,1555.63)">
            </g>
            <text x="769.156px" y="1555.63px" style="font-family:'HelveticaNeue-Light', 'Helvetica Neue';font-weight:300;font-size:45px;fill:rgb(136,136,136);">Down Block 1</text>
        </g>
        <g transform="matrix(1,0,0,1,-652.783,-948.204)">
            <g transform="matrix(45,0,0,45,1041.77,1555.63)">
            </g>
            <text x="769.156px" y="1555.63px" style="font-family:'HelveticaNeue-Light', 'Helvetica Neue';font-weight:300;font-size:45px;fill:rgb(136,136,136);">Down Block 2</text>
        </g>
        <g transform="matrix(1,0,0,1,-652.783,-750.165)">
            <g transform="matrix(45,0,0,45,1041.77,1555.63)">
            </g>
            <text x="769.156px" y="1555.63px" style="font-family:'HelveticaNeue-Light', 'Helvetica Neue';font-weight:300;font-size:45px;fill:rgb(136,136,136);">Down Block 3</text>
        </g>
        <g transform="matrix(1,0,0,1,-651.31,-550.165)">
            <g transform="matrix(45,0,0,45,1041.77,1555.63)">
            </g>
            <text x="769.156px" y="1555.63px" style="font-family:'HelveticaNeue-Light', 'Helvetica Neue';font-weight:300;font-size:45px;fill:rgb(136,136,136);">Down Block 4</text>
        </g>
        <g transform="matrix(1,0,0,1,-651.31,-350.932)">
            <g transform="matrix(45,0,0,45,1008.83,1555.63)">
            </g>
            <text x="802.096px" y="1555.63px" style="font-family:'HelveticaNeue-Light', 'Helvetica Neue';font-weight:300;font-size:45px;fill:rgb(136,136,136);">Bottleneck</text>
        </g>
        <g transform="matrix(1,0,0,1,-651.31,-150.165)">
            <g transform="matrix(45,0,0,45,1013.42,1555.63)">
            </g>
            <text x="797.506px" y="1555.63px" style="font-family:'HelveticaNeue-Light', 'Helvetica Neue';font-weight:300;font-size:45px;fill:rgb(136,136,136);">Up Block 1</text>
        </g>
        <g transform="matrix(1,0,0,1,-651.31,49.0679)">
            <g transform="matrix(45,0,0,45,1013.42,1555.63)">
            </g>
            <text x="797.506px" y="1555.63px" style="font-family:'HelveticaNeue-Light', 'Helvetica Neue';font-weight:300;font-size:45px;fill:rgb(136,136,136);">Up Block 2</text>
        </g>
        <g transform="matrix(1,0,0,1,-651.31,249.835)">
            <g transform="matrix(45,0,0,45,1013.42,1555.63)">
            </g>
            <text x="797.506px" y="1555.63px" style="font-family:'HelveticaNeue-Light', 'Helvetica Neue';font-weight:300;font-size:45px;fill:rgb(136,136,136);">Up Block 3</text>
        </g>
        <g transform="matrix(1,0,0,1,-651.31,449.068)">
            <g transform="matrix(45,0,0,45,1013.42,1555.63)">
            </g>
            <text x="797.506px" y="1555.63px" style="font-family:'HelveticaNeue-Light', 'Helvetica Neue';font-weight:300;font-size:45px;fill:rgb(136,136,136);">Up Block 4</text>
        </g>
        <g transform="matrix(1,0,0,1,0,211.519)">
            <g transform="matrix(0.382342,0,0,5.45842,2080,-126.04)">
                <path d="M2914.25,235.25C2914.25,232.722 2884.96,230.67 2848.87,230.67L1809.49,230.67C1773.4,230.67 1744.1,232.722 1744.1,235.25L1744.1,353.314C1744.1,355.842 1773.4,357.894 1809.49,357.894L2848.87,357.894C2884.96,357.894 2914.25,355.842 2914.25,353.314L2914.25,235.25Z" style="fill:rgb(40,119,121);"/>
            </g>
        </g>
        <g transform="matrix(1,0,0,1,0,211.519)">
            <g transform="matrix(0.333311,0,0,0.434819,2194.2,1255.07)">
                <path d="M2914.25,288.165C2914.25,256.432 2880.65,230.67 2839.25,230.67L1819.11,230.67C1777.71,230.67 1744.1,256.432 1744.1,288.165L1744.1,300.399C1744.1,332.131 1777.71,357.894 1819.11,357.894L2839.25,357.894C2880.65,357.894 2914.25,332.131 2914.25,300.399L2914.25,288.165Z" style="fill:white;fill-opacity:0.15;"/>
            </g>
        </g>
        <g transform="matrix(1,0,0,1,0,211.519)">
            <g transform="matrix(0.333311,0,0,0.434819,2194.2,1339.08)">
                <path d="M2914.25,288.165C2914.25,256.432 2880.65,230.67 2839.25,230.67L1819.11,230.67C1777.71,230.67 1744.1,256.432 1744.1,288.165L1744.1,300.399C1744.1,332.131 1777.71,357.894 1819.11,357.894L2839.25,357.894C2880.65,357.894 2914.25,332.131 2914.25,300.399L2914.25,288.165Z" style="fill:white;fill-opacity:0.15;"/>
            </g>
        </g>
        <g transform="matrix(1,0,0,1,0,211.519)">
            <g transform="matrix(0.333311,0,0,0.434819,2194.2,1449.13)">
                <path d="M2914.25,288.165C2914.25,256.432 2880.65,230.67 2839.25,230.67L1819.11,230.67C1777.71,230.67 1744.1,256.432 1744.1,288.165L1744.1,300.399C1744.1,332.131 1777.71,357.894 1819.11,357.894L2839.25,357.894C2880.65,357.894 2914.25,332.131 2914.25,300.399L2914.25,288.165Z" style="fill:white;fill-opacity:0.15;"/>
            </g>
        </g>
        <g transform="matrix(1,0,0,1,0,211.519)">
            <g transform="matrix(0.333311,0,0,0.434819,2194.2,1060.43)">
                <path d="M2914.25,288.165C2914.25,256.432 2880.65,230.67 2839.25,230.67L1819.11,230.67C1777.71,230.67 1744.1,256.432 1744.1,288.165L1744.1,300.399C1744.1,332.131 1777.71,357.894 1819.11,357.894L2839.25,357.894C2880.65,357.894 2914.25,332.131 2914.25,300.399L2914.25,288.165Z" style="fill:white;fill-opacity:0.15;"/>
            </g>
        </g>
        <g transform="matrix(1,0,0,1,0,211.519)">
            <g transform="matrix(0.333311,0,0,0.434819,2194.2,1533.14)">
                <path d="M2914.25,288.165C2914.25,256.432 2880.65,230.67 2839.25,230.67L1819.11,230.67C1777.71,230.67 1744.1,256.432 1744.1,288.165L1744.1,300.399C1744.1,332.131 1777.71,357.894 1819.11,357.894L2839.25,357.894C2880.65,357.894 2914.25,332.131 2914.25,300.399L2914.25,288.165Z" style="fill:white;fill-opacity:0.15;"/>
            </g>
        </g>
        <g transform="matrix(1,0,0,1,0,211.519)">
            <g transform="matrix(0.333311,0,0,0.434819,2194.2,1643.19)">
                <path d="M2914.25,288.165C2914.25,256.432 2880.65,230.67 2839.25,230.67L1819.11,230.67C1777.71,230.67 1744.1,256.432 1744.1,288.165L1744.1,300.399C1744.1,332.131 1777.71,357.894 1819.11,357.894L2839.25,357.894C2880.65,357.894 2914.25,332.131 2914.25,300.399L2914.25,288.165Z" style="fill:white;fill-opacity:0.15;"/>
            </g>
        </g>
        <g transform="matrix(1,0,0,1,0,211.519)">
            <g transform="matrix(0.333311,0,0,0.434819,2194.2,1145.02)">
                <path d="M2914.25,288.165C2914.25,256.432 2880.65,230.67 2839.25,230.67L1819.11,230.67C1777.71,230.67 1744.1,256.432 1744.1,288.165L1744.1,300.399C1744.1,332.131 1777.71,357.894 1819.11,357.894L2839.25,357.894C2880.65,357.894 2914.25,332.131 2914.25,300.399L2914.25,288.165Z" style="fill:white;fill-opacity:0.15;"/>
            </g>
        </g>
        <g transform="matrix(1,0,0,1,0,211.519)">
            <g transform="matrix(1,0,0,1,2122.75,-328.209)">
                <g transform="matrix(40,0,0,40,986.015,1531.68)">
                </g>
                <text x="709.575px" y="1531.68px" style="font-family:'HelveticaNeue-Medium', 'Helvetica Neue', sans-serif;font-weight:500;font-size:40px;fill:white;">Residual Block</text>
            </g>
        </g>
        <g transform="matrix(1,0,0,1,0,211.519)">
            <g transform="matrix(1,0,0,1,2122.75,-244.627)">
                <g transform="matrix(40,0,0,40,990.055,1531.89)">
                </g>
                <text x="705.535px" y="1531.89px" style="font-family:'HelveticaNeue-Medium', 'Helvetica Neue', sans-serif;font-weight:500;font-size:40px;fill:white;">Attention Block</text>
            </g>
        </g>
        <g transform="matrix(1,0,0,1,0,211.519)">
            <g transform="matrix(1,0,0,1,2122.75,-50.5681)">
                <g transform="matrix(40,0,0,40,990.055,1531.89)">
                </g>
                <text x="705.535px" y="1531.89px" style="font-family:'HelveticaNeue-Medium', 'Helvetica Neue', sans-serif;font-weight:500;font-size:40px;fill:white;">Attention Block</text>
            </g>
        </g>
        <g transform="matrix(1,0,0,1,0,211.519)">
            <g transform="matrix(1,0,0,1,2122.75,-134.575)">
                <g transform="matrix(40,0,0,40,986.015,1531.89)">
                </g>
                <text x="709.575px" y="1531.89px" style="font-family:'HelveticaNeue-Medium', 'Helvetica Neue', sans-serif;font-weight:500;font-size:40px;fill:white;">Residual Block</text>
            </g>
        </g>
        <g transform="matrix(1,0,0,1,0,211.519)">
            <g transform="matrix(1,0,0,1,2122.75,59.4839)">
                <g transform="matrix(40,0,0,40,986.015,1531.89)">
                </g>
                <text x="709.575px" y="1531.89px" style="font-family:'HelveticaNeue-Medium', 'Helvetica Neue', sans-serif;font-weight:500;font-size:40px;fill:white;">Residual Block</text>
            </g>
        </g>
        <g transform="matrix(1,0,0,1,0,211.519)">
            <g transform="matrix(1,0,0,1,2122.75,143.491)">
                <g transform="matrix(40,0,0,40,990.055,1531.89)">
                </g>
                <text x="705.535px" y="1531.89px" style="font-family:'HelveticaNeue-Medium', 'Helvetica Neue', sans-serif;font-weight:500;font-size:40px;fill:white;">Attention Block</text>
            </g>
        </g>
        <g transform="matrix(1,0,0,1,0,211.519)">
            <g transform="matrix(1,0,0,1,2122.75,253.543)">
                <g transform="matrix(40,0,0,40,941.515,1531.89)">
                </g>
                <text x="754.075px" y="1531.89px" style="font-family:'HelveticaNeue-Medium', 'Helvetica Neue', sans-serif;font-weight:500;font-size:40px;fill:white;">Upsample</text>
            </g>
        </g>
        <g transform="matrix(1,0,0,1,0,211.519)">
            <g transform="matrix(1,0,0,1,2094.06,-476.848)">
                <g transform="matrix(45,0,0,45,1035.28,1555.63)">
                </g>
                <text x="747.685px" y="1555.63px" style="font-family:'HelveticaNeue-Light', 'Helvetica Neue';font-weight:300;font-size:45px;fill:rgb(136,136,136);">Up Blocks 2, 3</text>
            </g>
        </g>
        <g transform="matrix(1,0,0,1,0,211.519)">
            <g transform="matrix(0.382342,0,0,4.5934,2563.05,73.4949)">
                <path d="M2914.25,236.112C2914.25,233.108 2884.96,230.67 2848.87,230.67L1809.49,230.67C1773.4,230.67 1744.1,233.108 1744.1,236.112L1744.1,352.452C1744.1,355.455 1773.4,357.894 1809.49,357.894L2848.87,357.894C2884.96,357.894 2914.25,355.455 2914.25,352.452L2914.25,236.112Z" style="fill:rgb(130,180,187);"/>
            </g>
        </g>
        <g transform="matrix(1,0,0,1,0,211.519)">
            <g transform="matrix(0.333311,0,0,0.434819,2677.25,1255.07)">
                <path d="M2914.25,288.165C2914.25,256.432 2880.65,230.67 2839.25,230.67L1819.11,230.67C1777.71,230.67 1744.1,256.432 1744.1,288.165L1744.1,300.399C1744.1,332.131 1777.71,357.894 1819.11,357.894L2839.25,357.894C2880.65,357.894 2914.25,332.131 2914.25,300.399L2914.25,288.165Z" style="fill:white;fill-opacity:0.15;"/>
            </g>
        </g>
        <g transform="matrix(1,0,0,1,0,211.519)">
            <g transform="matrix(0.333311,0,0,0.434819,2677.25,1339.08)">
                <path d="M2914.25,288.165C2914.25,256.432 2880.65,230.67 2839.25,230.67L1819.11,230.67C1777.71,230.67 1744.1,256.432 1744.1,288.165L1744.1,300.399C1744.1,332.131 1777.71,357.894 1819.11,357.894L2839.25,357.894C2880.65,357.894 2914.25,332.131 2914.25,300.399L2914.25,288.165Z" style="fill:white;fill-opacity:0.15;"/>
            </g>
        </g>
        <g transform="matrix(1,0,0,1,0,211.519)">
            <g transform="matrix(0.333311,0,0,0.434819,2677.25,1449.13)">
                <path d="M2914.25,288.165C2914.25,256.432 2880.65,230.67 2839.25,230.67L1819.11,230.67C1777.71,230.67 1744.1,256.432 1744.1,288.165L1744.1,300.399C1744.1,332.131 1777.71,357.894 1819.11,357.894L2839.25,357.894C2880.65,357.894 2914.25,332.131 2914.25,300.399L2914.25,288.165Z" style="fill:white;fill-opacity:0.15;"/>
            </g>
        </g>
        <g transform="matrix(1,0,0,1,0,211.519)">
            <g transform="matrix(0.333311,0,0,0.434819,2677.25,1060.43)">
                <path d="M2914.25,288.165C2914.25,256.432 2880.65,230.67 2839.25,230.67L1819.11,230.67C1777.71,230.67 1744.1,256.432 1744.1,288.165L1744.1,300.399C1744.1,332.131 1777.71,357.894 1819.11,357.894L2839.25,357.894C2880.65,357.894 2914.25,332.131 2914.25,300.399L2914.25,288.165Z" style="fill:white;fill-opacity:0.15;"/>
            </g>
        </g>
        <g transform="matrix(1,0,0,1,0,211.519)">
            <g transform="matrix(0.333311,0,0,0.434819,2677.25,1533.14)">
                <path d="M2914.25,288.165C2914.25,256.432 2880.65,230.67 2839.25,230.67L1819.11,230.67C1777.71,230.67 1744.1,256.432 1744.1,288.165L1744.1,300.399C1744.1,332.131 1777.71,357.894 1819.11,357.894L2839.25,357.894C2880.65,357.894 2914.25,332.131 2914.25,300.399L2914.25,288.165Z" style="fill:white;fill-opacity:0.15;"/>
            </g>
        </g>
        <g transform="matrix(1,0,0,1,0,211.519)">
            <g transform="matrix(0.333311,0,0,0.434819,2677.25,1145.02)">
                <path d="M2914.25,288.165C2914.25,256.432 2880.65,230.67 2839.25,230.67L1819.11,230.67C1777.71,230.67 1744.1,256.432 1744.1,288.165L1744.1,300.399C1744.1,332.131 1777.71,357.894 1819.11,357.894L2839.25,357.894C2880.65,357.894 2914.25,332.131 2914.25,300.399L2914.25,288.165Z" style="fill:white;fill-opacity:0.15;"/>
            </g>
        </g>
        <g transform="matrix(1,0,0,1,0,211.519)">
            <g transform="matrix(1,0,0,1,2605.79,-328.209)">
                <g transform="matrix(40,0,0,40,986.015,1531.68)">
                </g>
                <text x="709.575px" y="1531.68px" style="font-family:'HelveticaNeue-Medium', 'Helvetica Neue', sans-serif;font-weight:500;font-size:40px;fill:white;">Residual Block</text>
            </g>
        </g>
        <g transform="matrix(1,0,0,1,0,211.519)">
            <g transform="matrix(1,0,0,1,2605.79,-244.627)">
                <g transform="matrix(40,0,0,40,990.055,1531.89)">
                </g>
                <text x="705.535px" y="1531.89px" style="font-family:'HelveticaNeue-Medium', 'Helvetica Neue', sans-serif;font-weight:500;font-size:40px;fill:white;">Attention Block</text>
            </g>
        </g>
        <g transform="matrix(1,0,0,1,0,211.519)">
            <g transform="matrix(1,0,0,1,2605.79,-50.5681)">
                <g transform="matrix(40,0,0,40,990.055,1531.89)">
                </g>
                <text x="705.535px" y="1531.89px" style="font-family:'HelveticaNeue-Medium', 'Helvetica Neue', sans-serif;font-weight:500;font-size:40px;fill:white;">Attention Block</text>
            </g>
        </g>
        <g transform="matrix(1,0,0,1,0,211.519)">
            <g transform="matrix(1,0,0,1,2605.79,-134.575)">
                <g transform="matrix(40,0,0,40,986.015,1531.89)">
                </g>
                <text x="709.575px" y="1531.89px" style="font-family:'HelveticaNeue-Medium', 'Helvetica Neue', sans-serif;font-weight:500;font-size:40px;fill:white;">Residual Block</text>
            </g>
        </g>
        <g transform="matrix(1,0,0,1,0,211.519)">
            <g transform="matrix(1,0,0,1,2605.79,59.4839)">
                <g transform="matrix(40,0,0,40,986.015,1531.89)">
                </g>
                <text x="709.575px" y="1531.89px" style="font-family:'HelveticaNeue-Medium', 'Helvetica Neue', sans-serif;font-weight:500;font-size:40px;fill:white;">Residual Block</text>
            </g>
        </g>
        <g transform="matrix(1,0,0,1,0,211.519)">
            <g transform="matrix(1,0,0,1,2605.79,143.491)">
                <g transform="matrix(40,0,0,40,990.055,1531.89)">
                </g>
                <text x="705.535px" y="1531.89px" style="font-family:'HelveticaNeue-Medium', 'Helvetica Neue', sans-serif;font-weight:500;font-size:40px;fill:white;">Attention Block</text>
            </g>
        </g>
        <g transform="matrix(1,0,0,1,0,211.519)">
            <g transform="matrix(1,0,0,1,2577.11,-476.848)">
                <g transform="matrix(45,0,0,45,999.437,1555.63)">
                </g>
                <text x="783.527px" y="1555.63px" style="font-family:'HelveticaNeue-Light', 'Helvetica Neue';font-weight:300;font-size:45px;fill:rgb(136,136,136);">Up Block 4</text>
            </g>
        </g>
        <g transform="matrix(1,0,0,1,0,211.519)">
            <g transform="matrix(0.382342,0,0,3.4788,1598.05,330.6)">
                <path d="M2914.25,237.856C2914.25,233.89 2884.96,230.67 2848.87,230.67L1809.49,230.67C1773.4,230.67 1744.1,233.89 1744.1,237.856L1744.1,350.708C1744.1,354.674 1773.4,357.894 1809.49,357.894L2848.87,357.894C2884.96,357.894 2914.25,354.674 2914.25,350.708L2914.25,237.856Z" style="fill:rgb(39,94,122);"/>
            </g>
        </g>
        <g transform="matrix(1,0,0,1,0,211.519)">
            <g transform="matrix(0.333311,0,0,0.434819,1712.25,1171.07)">
                <path d="M2914.25,288.165C2914.25,256.432 2880.65,230.67 2839.25,230.67L1819.11,230.67C1777.71,230.67 1744.1,256.432 1744.1,288.165L1744.1,300.399C1744.1,332.131 1777.71,357.894 1819.11,357.894L2839.25,357.894C2880.65,357.894 2914.25,332.131 2914.25,300.399L2914.25,288.165Z" style="fill:white;fill-opacity:0.15;"/>
            </g>
        </g>
        <g transform="matrix(1,0,0,1,0,211.519)">
            <g transform="matrix(0.333311,0,0,0.434819,1712.25,1281.71)">
                <path d="M2914.25,288.165C2914.25,256.432 2880.65,230.67 2839.25,230.67L1819.11,230.67C1777.71,230.67 1744.1,256.432 1744.1,288.165L1744.1,300.399C1744.1,332.131 1777.71,357.894 1819.11,357.894L2839.25,357.894C2880.65,357.894 2914.25,332.131 2914.25,300.399L2914.25,288.165Z" style="fill:white;fill-opacity:0.15;"/>
            </g>
        </g>
        <g transform="matrix(1,0,0,1,0,211.519)">
            <g transform="matrix(0.333311,0,0,0.434819,1712.25,1392.35)">
                <path d="M2914.25,288.165C2914.25,256.432 2880.65,230.67 2839.25,230.67L1819.11,230.67C1777.71,230.67 1744.1,256.432 1744.1,288.165L1744.1,300.399C1744.1,332.131 1777.71,357.894 1819.11,357.894L2839.25,357.894C2880.65,357.894 2914.25,332.131 2914.25,300.399L2914.25,288.165Z" style="fill:white;fill-opacity:0.15;"/>
            </g>
        </g>
        <g transform="matrix(1,0,0,1,0,211.519)">
            <g transform="matrix(0.333311,0,0,0.434819,1712.25,1060.43)">
                <path d="M2914.25,288.165C2914.25,256.432 2880.65,230.67 2839.25,230.67L1819.11,230.67C1777.71,230.67 1744.1,256.432 1744.1,288.165L1744.1,300.399C1744.1,332.131 1777.71,357.894 1819.11,357.894L2839.25,357.894C2880.65,357.894 2914.25,332.131 2914.25,300.399L2914.25,288.165Z" style="fill:white;fill-opacity:0.15;"/>
            </g>
        </g>
        <g transform="matrix(1,0,0,1,0,211.519)">
            <g transform="matrix(1,0,0,1,1640.8,-329.22)">
                <g transform="matrix(40,0,0,40,986.015,1532.18)">
                </g>
                <text x="709.575px" y="1532.18px" style="font-family:'HelveticaNeue-Medium', 'Helvetica Neue', sans-serif;font-weight:500;font-size:40px;fill:white;">Residual Block</text>
            </g>
        </g>
        <g transform="matrix(1,0,0,1,0,211.519)">
            <g transform="matrix(1,0,0,1,1640.8,-218.581)">
                <g transform="matrix(40,0,0,40,986.015,1531.89)">
                </g>
                <text x="709.575px" y="1531.89px" style="font-family:'HelveticaNeue-Medium', 'Helvetica Neue', sans-serif;font-weight:500;font-size:40px;fill:white;">Residual Block</text>
            </g>
        </g>
        <g transform="matrix(1,0,0,1,0,211.519)">
            <g transform="matrix(1,0,0,1,1640.8,2.69704)">
                <g transform="matrix(40,0,0,40,941.515,1531.89)">
                </g>
                <text x="754.075px" y="1531.89px" style="font-family:'HelveticaNeue-Medium', 'Helvetica Neue', sans-serif;font-weight:500;font-size:40px;fill:white;">Upsample</text>
            </g>
        </g>
        <g transform="matrix(1,0,0,1,0,211.519)">
            <g transform="matrix(1,0,0,1,1640.8,-107.942)">
                <g transform="matrix(40,0,0,40,986.015,1531.89)">
                </g>
                <text x="709.575px" y="1531.89px" style="font-family:'HelveticaNeue-Medium', 'Helvetica Neue', sans-serif;font-weight:500;font-size:40px;fill:white;">Residual Block</text>
            </g>
        </g>
        <g transform="matrix(1,0,0,1,0,211.519)">
            <g transform="matrix(1,0,0,1,1612.11,-476.848)">
                <g transform="matrix(45,0,0,45,999.437,1555.63)">
                </g>
                <text x="783.527px" y="1555.63px" style="font-family:'HelveticaNeue-Light', 'Helvetica Neue';font-weight:300;font-size:45px;fill:rgb(136,136,136);">Up Block 1</text>
            </g>
        </g>
        <g transform="matrix(1,0,0,1,0,26.0214)">
            <g transform="matrix(0.382342,0,0,2.62506,2563.05,-293.314)">
                <path d="M2914.25,240.193C2914.25,234.937 2884.96,230.67 2848.87,230.67L1809.49,230.67C1773.4,230.67 1744.1,234.937 1744.1,240.193L1744.1,348.371C1744.1,353.627 1773.4,357.894 1809.49,357.894L2848.87,357.894C2884.96,357.894 2914.25,353.627 2914.25,348.371L2914.25,240.193Z" style="fill:rgb(241,196,54);"/>
            </g>
        </g>
        <g transform="matrix(1,0,0,1,0,26.0214)">
            <g transform="matrix(0.333311,0,0,0.434819,2677.25,240.595)">
                <path d="M2914.25,288.165C2914.25,256.432 2880.65,230.67 2839.25,230.67L1819.11,230.67C1777.71,230.67 1744.1,256.432 1744.1,288.165L1744.1,300.399C1744.1,332.131 1777.71,357.894 1819.11,357.894L2839.25,357.894C2880.65,357.894 2914.25,332.131 2914.25,300.399L2914.25,288.165Z" style="fill:white;fill-opacity:0.25;"/>
            </g>
        </g>
        <g transform="matrix(1,0,0,1,0,26.0214)">
            <g transform="matrix(0.333311,0,0,0.434819,2677.25,351.234)">
                <path d="M2914.25,288.165C2914.25,256.432 2880.65,230.67 2839.25,230.67L1819.11,230.67C1777.71,230.67 1744.1,256.432 1744.1,288.165L1744.1,300.399C1744.1,332.131 1777.71,357.894 1819.11,357.894L2839.25,357.894C2880.65,357.894 2914.25,332.131 2914.25,300.399L2914.25,288.165Z" style="fill:white;fill-opacity:0.25;"/>
            </g>
        </g>
        <g transform="matrix(1,0,0,1,0,26.0214)">
            <g transform="matrix(0.333311,0,0,0.434819,2677.25,461.873)">
                <path d="M2914.25,288.165C2914.25,256.432 2880.65,230.67 2839.25,230.67L1819.11,230.67C1777.71,230.67 1744.1,256.432 1744.1,288.165L1744.1,300.399C1744.1,332.131 1777.71,357.894 1819.11,357.894L2839.25,357.894C2880.65,357.894 2914.25,332.131 2914.25,300.399L2914.25,288.165Z" style="fill:white;fill-opacity:0.25;"/>
            </g>
        </g>
        <g transform="matrix(1,0,0,1,0,26.0214)">
            <g transform="matrix(1,0,0,1,2605.79,-1149.05)">
                <g transform="matrix(40,0,0,40,986.015,1531.89)">
                </g>
                <text x="709.575px" y="1531.89px" style="font-family:'HelveticaNeue-Medium', 'Helvetica Neue', sans-serif;font-weight:500;font-size:40px;fill:white;">Residual Block</text>
            </g>
        </g>
        <g transform="matrix(1,0,0,1,0,26.0214)">
            <g transform="matrix(1,0,0,1,2605.79,-927.776)">
                <g transform="matrix(40,0,0,40,986.015,1531.89)">
                </g>
                <text x="709.575px" y="1531.89px" style="font-family:'HelveticaNeue-Medium', 'Helvetica Neue', sans-serif;font-weight:500;font-size:40px;fill:white;">Residual Block</text>
            </g>
        </g>
        <g transform="matrix(1,0,0,1,0,26.0214)">
            <g transform="matrix(1,0,0,1,2605.79,-1038.42)">
                <g transform="matrix(40,0,0,40,990.055,1531.89)">
                </g>
                <text x="705.535px" y="1531.89px" style="font-family:'HelveticaNeue-Medium', 'Helvetica Neue', sans-serif;font-weight:500;font-size:40px;fill:white;">Attention Block</text>
            </g>
        </g>
        <g transform="matrix(1,0,0,1,0,26.0214)">
            <g transform="matrix(0.382342,0,0,2.61249,2080,-290.416)">
                <path d="M2914.25,240.239C2914.25,234.958 2884.96,230.67 2848.87,230.67L1809.49,230.67C1773.4,230.67 1744.1,234.958 1744.1,240.239L1744.1,348.325C1744.1,353.606 1773.4,357.894 1809.49,357.894L2848.87,357.894C2884.96,357.894 2914.25,353.606 2914.25,348.325L2914.25,240.239Z" style="fill:rgb(223,74,57);"/>
            </g>
        </g>
        <g transform="matrix(1,0,0,1,0,26.0214)">
            <g transform="matrix(0.333311,0,0,0.434819,2194.2,350.222)">
                <path d="M2914.25,288.165C2914.25,256.432 2880.65,230.67 2839.25,230.67L1819.11,230.67C1777.71,230.67 1744.1,256.432 1744.1,288.165L1744.1,300.399C1744.1,332.131 1777.71,357.894 1819.11,357.894L2839.25,357.894C2880.65,357.894 2914.25,332.131 2914.25,300.399L2914.25,288.165Z" style="fill:white;fill-opacity:0.15;"/>
            </g>
        </g>
        <g transform="matrix(1,0,0,1,0,26.0214)">
            <g transform="matrix(0.333311,0,0,0.434819,2194.2,460.274)">
                <path d="M2914.25,288.165C2914.25,256.432 2880.65,230.67 2839.25,230.67L1819.11,230.67C1777.71,230.67 1744.1,256.432 1744.1,288.165L1744.1,300.399C1744.1,332.131 1777.71,357.894 1819.11,357.894L2839.25,357.894C2880.65,357.894 2914.25,332.131 2914.25,300.399L2914.25,288.165Z" style="fill:white;fill-opacity:0.15;"/>
            </g>
        </g>
        <g transform="matrix(1,0,0,1,0,26.0214)">
            <g transform="matrix(0.333311,0,0,0.434819,2194.2,239.583)">
                <path d="M2914.25,288.165C2914.25,256.432 2880.65,230.67 2839.25,230.67L1819.11,230.67C1777.71,230.67 1744.1,256.432 1744.1,288.165L1744.1,300.399C1744.1,332.131 1777.71,357.894 1819.11,357.894L2839.25,357.894C2880.65,357.894 2914.25,332.131 2914.25,300.399L2914.25,288.165Z" style="fill:white;fill-opacity:0.15;"/>
            </g>
        </g>
        <g transform="matrix(1,0,0,1,0,26.0214)">
            <g transform="matrix(1,0,0,1,2122.75,-1149.05)">
                <g transform="matrix(40,0,0,40,919.295,1531.68)">
                </g>
                <text x="776.295px" y="1531.68px" style="font-family:'HelveticaNeue-Medium', 'Helvetica Neue', sans-serif;font-weight:500;font-size:40px;fill:white;">Conv2d</text>
            </g>
        </g>
        <g transform="matrix(1,0,0,1,0,26.0214)">
            <g transform="matrix(1,0,0,1,2122.75,-1039.43)">
                <g transform="matrix(40,0,0,40,986.015,1531.89)">
                </g>
                <text x="709.575px" y="1531.89px" style="font-family:'HelveticaNeue-Medium', 'Helvetica Neue', sans-serif;font-weight:500;font-size:40px;fill:white;">Residual Block</text>
            </g>
        </g>
        <g transform="matrix(1,0,0,1,0,26.0214)">
            <g transform="matrix(1,0,0,1,2122.75,-929.375)">
                <g transform="matrix(40,0,0,40,986.015,1531.89)">
                </g>
                <text x="709.575px" y="1531.89px" style="font-family:'HelveticaNeue-Medium', 'Helvetica Neue', sans-serif;font-weight:500;font-size:40px;fill:white;">Residual Block</text>
            </g>
        </g>
        <g transform="matrix(1,0,0,1,968.011,-1151.38)">
            <text x="681.383px" y="1555.63px" style="font-family:'HelveticaNeue-Bold', 'Helvetica Neue';font-weight:700;font-size:45px;fill:white;">out</text>
            <g transform="matrix(45,0,0,45,1032.38,1555.63)">
            </g>
            <text x="763.913px" y="1555.63px" style="font-family:'HelveticaNeue-Light', 'Helvetica Neue';font-weight:300;font-size:45px;fill:white;">320 x 64 x 64</text>
        </g>
        <g transform="matrix(1,0,0,1,-177.589,-950.932)">
            <text x="682.783px" y="1556.01px" style="font-family:'HelveticaNeue-Bold', 'Helvetica Neue';font-weight:700;font-size:45px;fill:white;">in</text>
            <g transform="matrix(45,0,0,45,1002.06,1556.01)">
            </g>
            <text x="733.588px" y="1556.01px" style="font-family:'HelveticaNeue-Light', 'Helvetica Neue';font-weight:300;font-size:45px;fill:white;">320 x 64 x 64</text>
        </g>
        <g transform="matrix(1,0,0,1,-177.589,-1151.38)">
            <text x="682.783px" y="1556.01px" style="font-family:'HelveticaNeue-Bold', 'Helvetica Neue';font-weight:700;font-size:45px;fill:white;">in</text>
            <g transform="matrix(45,0,0,45,952.018,1556.01)">
            </g>
            <text x="733.588px" y="1556.01px" style="font-family:'HelveticaNeue-Light', 'Helvetica Neue';font-weight:300;font-size:45px;fill:white;">4 x 64 x 64</text>
        </g>
        <g transform="matrix(1,0,0,1,708.297,-950.932)">
            <text x="681.447px" y="1556.01px" style="font-family:'HelveticaNeue-Bold', 'Helvetica Neue';font-weight:700;font-size:45px;fill:white;">out</text>
            <g transform="matrix(45,0,0,45,1032.9,1556.01)">
            </g>
            <text x="763.977px" y="1556.01px" style="font-family:'HelveticaNeue-Light', 'Helvetica Neue';font-weight:300;font-size:45px;fill:white;">640 x 32 <tspan x="948.702px " y="1556.01px ">x</tspan> 32</text>
        </g>
        <g transform="matrix(1,0,0,1,-177.589,-750.932)">
            <text x="682.783px" y="1556.01px" style="font-family:'HelveticaNeue-Bold', 'Helvetica Neue';font-weight:700;font-size:45px;fill:white;">in</text>
            <g transform="matrix(45,0,0,45,1002.06,1556.01)">
            </g>
            <text x="733.588px" y="1556.01px" style="font-family:'HelveticaNeue-Light', 'Helvetica Neue';font-weight:300;font-size:45px;fill:white;">640 x 32 x 32</text>
        </g>
        <g transform="matrix(1,0,0,1,478.911,-750.932)">
            <text x="670.263px" y="1556.01px" style="font-family:'HelveticaNeue-Bold', 'Helvetica Neue';font-weight:700;font-size:45px;fill:white;">out</text>
            <g transform="matrix(45,0,0,45,1046.28,1556.01)">
            </g>
            <text x="752.793px" y="1556.01px" style="font-family:'HelveticaNeue-Light', 'Helvetica Neue';font-weight:300;font-size:45px;fill:white;">1280 x 16 x 16</text>
        </g>
        <g transform="matrix(1,0,0,1,-177.589,-550.932)">
            <text x="682.783px" y="1556.01px" style="font-family:'HelveticaNeue-Bold', 'Helvetica Neue';font-weight:700;font-size:45px;fill:white;">in</text>
            <g transform="matrix(45,0,0,45,1027.08,1556.01)">
            </g>
            <text x="733.588px" y="1556.01px" style="font-family:'HelveticaNeue-Light', 'Helvetica Neue';font-weight:300;font-size:45px;fill:white;">1280 x 16 x 16</text>
        </g>
        <g transform="matrix(1,0,0,1,354.647,-550.932)">
            <text x="664.567px" y="1556.01px" style="font-family:'HelveticaNeue-Bold', 'Helvetica Neue';font-weight:700;font-size:45px;fill:white;">out</text>
            <g transform="matrix(45,0,0,45,990.547,1556.01)">
            </g>
            <text x="747.097px" y="1556.01px" style="font-family:'HelveticaNeue-Light', 'Helvetica Neue';font-weight:300;font-size:45px;fill:white;">1280 x 8 x 8</text>
        </g>
        <g transform="matrix(1,0,0,1,-177.589,-350.932)">
            <text x="682.783px" y="1556.01px" style="font-family:'HelveticaNeue-Bold', 'Helvetica Neue';font-weight:700;font-size:45px;fill:white;">in</text>
            <g transform="matrix(45,0,0,45,977.038,1556.01)">
            </g>
            <text x="733.588px" y="1556.01px" style="font-family:'HelveticaNeue-Light', 'Helvetica Neue';font-weight:300;font-size:45px;fill:white;">1280 x 8 x 8</text>
        </g>
        <g transform="matrix(1,0,0,1,210.618,-350.932)">
            <text x="658.596px" y="1556.01px" style="font-family:'HelveticaNeue-Bold', 'Helvetica Neue';font-weight:700;font-size:45px;fill:white;">out</text>
            <g transform="matrix(45,0,0,45,984.576,1556.01)">
            </g>
            <text x="741.126px" y="1556.01px" style="font-family:'HelveticaNeue-Light', 'Helvetica Neue';font-weight:300;font-size:45px;fill:white;">1280 x 8 x 8</text>
        </g>
        <g transform="matrix(1,0,0,1,-177.589,-150.932)">
            <text x="682.783px" y="1556.01px" style="font-family:'HelveticaNeue-Bold', 'Helvetica Neue';font-weight:700;font-size:45px;fill:white;">in</text>
            <g transform="matrix(45,0,0,45,977.038,1556.01)">
            </g>
            <text x="733.588px" y="1556.01px" style="font-family:'HelveticaNeue-Light', 'Helvetica Neue';font-weight:300;font-size:45px;fill:white;">2560 x 8 x 8</text>
        </g>
        <g transform="matrix(1,0,0,1,306.709,-150.932)">
            <text x="662.465px" y="1556.01px" style="font-family:'HelveticaNeue-Bold', 'Helvetica Neue';font-weight:700;font-size:45px;fill:white;">out</text>
            <g transform="matrix(45,0,0,45,1038.49,1556.01)">
            </g>
            <text x="744.995px" y="1556.01px" style="font-family:'HelveticaNeue-Light', 'Helvetica Neue';font-weight:300;font-size:45px;fill:white;">1280 x 16 x 16</text>
        </g>
        <g transform="matrix(1,0,0,1,-177.589,49.0679)">
            <text x="682.783px" y="1556.01px" style="font-family:'HelveticaNeue-Bold', 'Helvetica Neue';font-weight:700;font-size:45px;fill:white;">in</text>
            <g transform="matrix(45,0,0,45,1027.08,1556.01)">
            </g>
            <text x="733.588px" y="1556.01px" style="font-family:'HelveticaNeue-Light', 'Helvetica Neue';font-weight:300;font-size:45px;fill:white;">2560 x 16 x 16</text>
        </g>
        <g transform="matrix(1,0,0,1,486.709,49.0679)">
            <text x="662.465px" y="1556.01px" style="font-family:'HelveticaNeue-Bold', 'Helvetica Neue';font-weight:700;font-size:45px;fill:white;">out</text>
            <g transform="matrix(45,0,0,45,1038.49,1556.01)">
            </g>
            <text x="744.995px" y="1556.01px" style="font-family:'HelveticaNeue-Light', 'Helvetica Neue';font-weight:300;font-size:45px;fill:white;">1280 x 32 x 32</text>
        </g>
        <g transform="matrix(1,0,0,1,-177.589,249.068)">
            <text x="682.783px" y="1556.01px" style="font-family:'HelveticaNeue-Bold', 'Helvetica Neue';font-weight:700;font-size:45px;fill:white;">in</text>
            <g transform="matrix(45,0,0,45,1027.08,1556.01)">
            </g>
            <text x="733.588px" y="1556.01px" style="font-family:'HelveticaNeue-Light', 'Helvetica Neue';font-weight:300;font-size:45px;fill:white;">1920 x 32 x 32</text>
        </g>
        <g transform="matrix(1,0,0,1,702.709,249.068)">
            <text x="687.485px" y="1556.01px" style="font-family:'HelveticaNeue-Bold', 'Helvetica Neue';font-weight:700;font-size:45px;fill:white;">out</text>
            <g transform="matrix(45,0,0,45,1038.49,1556.01)">
            </g>
            <text x="770.015px" y="1556.01px" style="font-family:'HelveticaNeue-Light', 'Helvetica Neue';font-weight:300;font-size:45px;fill:white;">640 x 64 x 64</text>
        </g>
        <g transform="matrix(1,0,0,1,-177.589,449.068)">
            <text x="682.783px" y="1556.01px" style="font-family:'HelveticaNeue-Bold', 'Helvetica Neue';font-weight:700;font-size:45px;fill:white;">in</text>
            <g transform="matrix(45,0,0,45,1002.06,1556.01)">
            </g>
            <text x="733.588px" y="1556.01px" style="font-family:'HelveticaNeue-Light', 'Helvetica Neue';font-weight:300;font-size:45px;fill:white;">960 x 64 x 64</text>
        </g>
        <g transform="matrix(1,0,0,1,961.909,449.068)">
            <text x="687.485px" y="1556.01px" style="font-family:'HelveticaNeue-Bold', 'Helvetica Neue';font-weight:700;font-size:45px;fill:white;">out</text>
            <g transform="matrix(45,0,0,45,1038.49,1556.01)">
            </g>
            <text x="770.015px" y="1556.01px" style="font-family:'HelveticaNeue-Light', 'Helvetica Neue';font-weight:300;font-size:45px;fill:white;">320 x 64 x 64</text>
        </g>
    </g>
</svg>
